<svg width="57" height="57" viewBox="0 0 57 57" fill="none" xmlns="http://www.w3.org/2000/svg">
<rect x="0.5" y="0.5" width="56" height="56" fill="white" stroke="black"/>
<line y1="-0.5" x2="1" y2="-0.5" transform="matrix(-1 0 0 1 48 49)" stroke="black"/>
<line y1="-0.5" x2="1" y2="-0.5" transform="matrix(-1 0 0 1 49 49)" stroke="black"/>
<line y1="-0.5" x2="1" y2="-0.5" transform="matrix(-1 0 0 1 50 46)" stroke="#B3B6B5"/>
<line y1="-0.5" x2="1" y2="-0.5" transform="matrix(-1 0 0 1 49 46)" stroke="#B3B6B5"/>
<line y1="-0.5" x2="1" y2="-0.5" transform="matrix(-1 0 0 1 49 47)" stroke="#B3B6B5"/>
<line x1="30.5" y1="11" x2="30.5" y2="6" stroke="white"/>
<line x1="31" y1="12.5" x2="36" y2="12.5" stroke="white"/>
<path d="M15.5 33.5H23.5M37 10.5H45M26.5 2.5H34.5" stroke="white"/>
<line x1="29.5" y1="51" x2="29.5" y2="34" stroke="black"/>
<g filter="url(#filter0_d_1_129)">
<line x1="29" y1="50.5" x2="41" y2="50.5" stroke="black"/>
</g>
<g filter="url(#filter1_d_1_129)">
<line x1="40.5" y1="51" x2="40.5" y2="11" stroke="black"/>
</g>
<g filter="url(#filter2_d_1_129)">
<line x1="51.5" y1="45" x2="51.5" y2="11" stroke="black"/>
</g>
<line x1="44.5" y1="45" x2="44.5" y2="11" stroke="black"/>
<line x1="31" y1="11.5" x2="41" y2="11.5" stroke="black"/>
<line x1="7.5" y1="51" x2="7.5" y2="11" stroke="black"/>
<line x1="7" y1="11.5" x2="17" y2="11.5" stroke="black"/>
<line x1="16.5" y1="12" x2="16.5" y2="3" stroke="black"/>
<line x1="16" y1="3.5" x2="32" y2="3.5" stroke="black"/>
<g filter="url(#filter3_d_1_129)">
<line x1="31.5" y1="3" x2="31.5" y2="12" stroke="black"/>
</g>
<g filter="url(#filter4_i_1_129)">
<rect x="18" y="12" width="12" height="12" fill="white"/>
</g>
<rect x="18.5" y="12.5" width="11" height="11" stroke="black"/>
<g filter="url(#filter5_d_1_129)">
<line x1="7" y1="50.5" x2="19" y2="50.5" stroke="black"/>
</g>
<line x1="18" y1="34.5" x2="30" y2="34.5" stroke="black"/>
<g filter="url(#filter6_d_1_129)">
<line x1="18.5" y1="51" x2="18.5" y2="34" stroke="black"/>
</g>
<path d="M15.5 33.5H23.5M37 10.5H45M26.5 2.5H34.5" stroke="white"/>
<line x1="31" y1="12.5" x2="36" y2="12.5" stroke="white"/>
<line x1="31" y1="13.5" x2="36" y2="13.5" stroke="white"/>
<line x1="31" y1="14.5" x2="36" y2="14.5" stroke="white"/>
<line x1="30.5" y1="11" x2="30.5" y2="14" stroke="white"/>
<line x1="52" y1="11.5" x2="44" y2="11.5" stroke="black"/>
<line x1="52" y1="42.5" x2="44" y2="42.5" stroke="black"/>
<line x1="45" y1="49.5" x2="46" y2="49.5" stroke="black"/>
<line x1="46" y1="46.5" x2="47" y2="46.5" stroke="black"/>
<line x1="47" y1="47.5" x2="48" y2="47.5" stroke="black"/>
<line x1="45" y1="45.5" x2="46" y2="45.5" stroke="black"/>
<line y1="-0.5" x2="1" y2="-0.5" transform="matrix(-1 0 0 1 50 47)" stroke="black"/>
<line y1="-0.5" x2="1" y2="-0.5" transform="matrix(-1 0 0 1 49 48)" stroke="black"/>
<line y1="-0.5" x2="1" y2="-0.5" transform="matrix(-1 0 0 1 51 46)" stroke="black"/>
<line x1="43" y1="49.5" x2="44" y2="49.5" stroke="black"/>
<rect x="47" y="12" width="4" height="30" fill="#B3B6B5"/>
<rect width="3" height="2" transform="matrix(1 0 0 -1 48 45)" fill="#B3B6B5"/>
<defs>
<filter id="filter0_d_1_129" x="27" y="49" width="16" height="5" filterUnits="userSpaceOnUse" color-interpolation-filters="sRGB">
<feFlood flood-opacity="0" result="BackgroundImageFix"/>
<feColorMatrix in="SourceAlpha" type="matrix" values="0 0 0 0 0 0 0 0 0 0 0 0 0 0 0 0 0 0 127 0" result="hardAlpha"/>
<feOffset dy="1"/>
<feGaussianBlur stdDeviation="1"/>
<feComposite in2="hardAlpha" operator="out"/>
<feColorMatrix type="matrix" values="0 0 0 0 0 0 0 0 0 0 0 0 0 0 0 0 0 0 0.5 0"/>
<feBlend mode="normal" in2="BackgroundImageFix" result="effect1_dropShadow_1_129"/>
<feBlend mode="normal" in="SourceGraphic" in2="effect1_dropShadow_1_129" result="shape"/>
</filter>
<filter id="filter1_d_1_129" x="39" y="10" width="5" height="44" filterUnits="userSpaceOnUse" color-interpolation-filters="sRGB">
<feFlood flood-opacity="0" result="BackgroundImageFix"/>
<feColorMatrix in="SourceAlpha" type="matrix" values="0 0 0 0 0 0 0 0 0 0 0 0 0 0 0 0 0 0 127 0" result="hardAlpha"/>
<feOffset dx="1" dy="1"/>
<feGaussianBlur stdDeviation="1"/>
<feComposite in2="hardAlpha" operator="out"/>
<feColorMatrix type="matrix" values="0 0 0 0 0 0 0 0 0 0 0 0 0 0 0 0 0 0 0.5 0"/>
<feBlend mode="normal" in2="BackgroundImageFix" result="effect1_dropShadow_1_129"/>
<feBlend mode="normal" in="SourceGraphic" in2="effect1_dropShadow_1_129" result="shape"/>
</filter>
<filter id="filter2_d_1_129" x="50" y="10" width="5" height="38" filterUnits="userSpaceOnUse" color-interpolation-filters="sRGB">
<feFlood flood-opacity="0" result="BackgroundImageFix"/>
<feColorMatrix in="SourceAlpha" type="matrix" values="0 0 0 0 0 0 0 0 0 0 0 0 0 0 0 0 0 0 127 0" result="hardAlpha"/>
<feOffset dx="1" dy="1"/>
<feGaussianBlur stdDeviation="1"/>
<feComposite in2="hardAlpha" operator="out"/>
<feColorMatrix type="matrix" values="0 0 0 0 0 0 0 0 0 0 0 0 0 0 0 0 0 0 0.5 0"/>
<feBlend mode="normal" in2="BackgroundImageFix" result="effect1_dropShadow_1_129"/>
<feBlend mode="normal" in="SourceGraphic" in2="effect1_dropShadow_1_129" result="shape"/>
</filter>
<filter id="filter3_d_1_129" x="30" y="3" width="5" height="13" filterUnits="userSpaceOnUse" color-interpolation-filters="sRGB">
<feFlood flood-opacity="0" result="BackgroundImageFix"/>
<feColorMatrix in="SourceAlpha" type="matrix" values="0 0 0 0 0 0 0 0 0 0 0 0 0 0 0 0 0 0 127 0" result="hardAlpha"/>
<feOffset dx="1" dy="2"/>
<feGaussianBlur stdDeviation="1"/>
<feComposite in2="hardAlpha" operator="out"/>
<feColorMatrix type="matrix" values="0 0 0 0 0 0 0 0 0 0 0 0 0 0 0 0 0 0 0.5 0"/>
<feBlend mode="normal" in2="BackgroundImageFix" result="effect1_dropShadow_1_129"/>
<feBlend mode="normal" in="SourceGraphic" in2="effect1_dropShadow_1_129" result="shape"/>
</filter>
<filter id="filter4_i_1_129" x="18" y="12" width="14" height="13" filterUnits="userSpaceOnUse" color-interpolation-filters="sRGB">
<feFlood flood-opacity="0" result="BackgroundImageFix"/>
<feBlend mode="normal" in="SourceGraphic" in2="BackgroundImageFix" result="shape"/>
<feColorMatrix in="SourceAlpha" type="matrix" values="0 0 0 0 0 0 0 0 0 0 0 0 0 0 0 0 0 0 127 0" result="hardAlpha"/>
<feMorphology radius="2" operator="erode" in="SourceAlpha" result="effect1_innerShadow_1_129"/>
<feOffset dx="2" dy="1"/>
<feGaussianBlur stdDeviation="1"/>
<feComposite in2="hardAlpha" operator="arithmetic" k2="-1" k3="1"/>
<feColorMatrix type="matrix" values="0 0 0 0 0 0 0 0 0 0 0 0 0 0 0 0 0 0 0.25 0"/>
<feBlend mode="normal" in2="shape" result="effect1_innerShadow_1_129"/>
</filter>
<filter id="filter5_d_1_129" x="5" y="49" width="16" height="5" filterUnits="userSpaceOnUse" color-interpolation-filters="sRGB">
<feFlood flood-opacity="0" result="BackgroundImageFix"/>
<feColorMatrix in="SourceAlpha" type="matrix" values="0 0 0 0 0 0 0 0 0 0 0 0 0 0 0 0 0 0 127 0" result="hardAlpha"/>
<feOffset dy="1"/>
<feGaussianBlur stdDeviation="1"/>
<feComposite in2="hardAlpha" operator="out"/>
<feColorMatrix type="matrix" values="0 0 0 0 0 0 0 0 0 0 0 0 0 0 0 0 0 0 0.5 0"/>
<feBlend mode="normal" in2="BackgroundImageFix" result="effect1_dropShadow_1_129"/>
<feBlend mode="normal" in="SourceGraphic" in2="effect1_dropShadow_1_129" result="shape"/>
</filter>
<filter id="filter6_d_1_129" x="17" y="32" width="5" height="21" filterUnits="userSpaceOnUse" color-interpolation-filters="sRGB">
<feFlood flood-opacity="0" result="BackgroundImageFix"/>
<feColorMatrix in="SourceAlpha" type="matrix" values="0 0 0 0 0 0 0 0 0 0 0 0 0 0 0 0 0 0 127 0" result="hardAlpha"/>
<feOffset dx="1"/>
<feGaussianBlur stdDeviation="1"/>
<feComposite in2="hardAlpha" operator="out"/>
<feColorMatrix type="matrix" values="0 0 0 0 0 0 0 0 0 0 0 0 0 0 0 0 0 0 0.5 0"/>
<feBlend mode="normal" in2="BackgroundImageFix" result="effect1_dropShadow_1_129"/>
<feBlend mode="normal" in="SourceGraphic" in2="effect1_dropShadow_1_129" result="shape"/>
</filter>
</defs>
</svg>
